<?xml version="1.0" encoding="utf-8"?>
<!-- Generator: Adobe Illustrator 27.6.1, SVG Export Plug-In . SVG Version: 6.00 Build 0)  -->
<svg version="1.1" id="Layer_1" xmlns="http://www.w3.org/2000/svg" xmlns:xlink="http://www.w3.org/1999/xlink" x="0px" y="0px"
	 viewBox="0 0 173.8 49.5" style="enable-background:new 0 0 173.8 49.5;" xml:space="preserve">
<style type="text/css">
	.st0{fill:#680325;}
	.st1{fill:#FFFFFF;stroke:#680325;stroke-miterlimit:10;}
	.st2{fill:none;stroke:#FFFFFF;stroke-miterlimit:10;}
</style>
<rect x="46.8" y="12" class="st0" width="46.6" height="31.9"/>
<path class="st1" d="M70.1,15.1c8,0,13.6,5.8,13.6,13.7c0,7.9-5.6,13.7-13.6,13.7c-8,0-13.6-5.8-13.6-13.7
	C56.6,21,62.2,15.1,70.1,15.1z M70.1,19.3c-5.4,0-8.8,4.1-8.8,9.6c0,5.5,3.4,9.6,8.8,9.6c5.3,0,8.8-4.1,8.8-9.6
	C78.9,23.4,75.5,19.3,70.1,19.3z"/>
<path d="M20.5,42.1L13,31.7L5.6,42.1H0l9.9-13.6L0.6,15.6h5.6l6.8,9.7l6.8-9.7h5.6l-9.3,12.9L26,42.1H20.5z"/>
<path d="M47.5,42.1V30.5H33.7v11.6H29V15.6h4.7v10.9h13.8V15.6h4.7v26.5H47.5z"/>
<path d="M96.6,42.1L86.1,15.6h5.3l8,21.5l8-21.5h5.3l-10.4,26.5H96.6z"/>
<path d="M132.5,42.1l-1.9-5.1H118l-1.9,5.1h-5.1l10.4-26.5h5.8l10.4,26.5H132.5z M124.3,19.5l-5,13.4h9.9L124.3,19.5z"/>
<path d="M159,42.1l-13.8-19.3v19.3h-4.7V15.6h4.8l13.6,18.8V15.6h4.7v26.5H159z"/>
<path d="M169.1,42.1V15.6h4.7v26.5H169.1z"/>
<path class="st1" d="M70,19.6c5.2,0,8.8,3.9,8.8,9.3c0,5.3-3.7,9.3-8.8,9.3c-5.2,0-8.8-3.9-8.8-9.3C61.2,23.5,64.8,19.6,70,19.6z
	 M70,22.4c-3.5,0-5.7,2.8-5.7,6.5c0,3.7,2.2,6.5,5.7,6.5c3.5,0,5.7-2.8,5.7-6.5C75.7,25.1,73.5,22.4,70,22.4z"/>
<rect x="51" y="10.9" class="st0" width="6.4" height="3.4"/>
<path class="st2" d="M65.2,27.9c0,0,0.3-3.8,3.4-4.6"/>
<rect x="67.3" y="9.1" class="st0" width="6.4" height="3.4"/>
</svg>
