<?xml version="1.0" encoding="utf-8"?>
<!-- Generator: Adobe Illustrator 27.7.0, SVG Export Plug-In . SVG Version: 6.00 Build 0)  -->
<svg version="1.1" id="Layer_1" xmlns="http://www.w3.org/2000/svg" xmlns:xlink="http://www.w3.org/1999/xlink" x="0px" y="0px"
	 viewBox="0 0 33.8 6.4" style="enable-background:new 0 0 33.8 6.4;" xml:space="preserve">
<style type="text/css">
	.st0{fill:#800020;}
	.st1{fill:none;stroke:#800020;stroke-width:0.1844;stroke-miterlimit:10;}
	.st2{fill:none;stroke:#800020;stroke-width:9.912176e-02;stroke-miterlimit:10;}
</style>
<path class="st0" d="M0.4,0.9l1.7,2.4l1.7-2.4H4L2.3,3.4l2,2.8H4.1L2.2,3.5l-2,2.7H0l2-2.8L0.2,0.9H0.4z"/>
<path class="st0" d="M5.1,0.9v2.4h3.7V0.9H9v5.3H8.8V3.5H5.1v2.7H4.9V0.9H5.1z"/>
<path class="st0" d="M15.6,1.6c0.4,0.5,0.6,1.2,0.6,1.9c0,0.8-0.2,1.4-0.6,1.9c-0.5,0.5-1.1,0.8-1.8,0.8c-0.8,0-1.4-0.3-1.8-0.8
	c-0.4-0.5-0.6-1.2-0.6-1.9c0-0.8,0.2-1.4,0.6-1.9c0.4-0.6,1-0.8,1.8-0.8C14.5,0.8,15.1,1,15.6,1.6z M12.1,1.7
	c-0.4,0.5-0.6,1.1-0.6,1.8s0.2,1.3,0.6,1.8c0.4,0.5,1,0.7,1.7,0.7s1.3-0.3,1.7-0.7c0.3-0.4,0.5-1,0.5-1.8c0-0.7-0.2-1.4-0.6-1.8
	C15,1.2,14.5,1,13.8,1S12.5,1.2,12.1,1.7z"/>
<path class="st0" d="M18.7,0.9l2,5.1l0,0l2-5.1h0.2l-2.1,5.3h-0.3l-2.1-5.3C18.4,0.9,18.7,0.9,18.7,0.9z"/>
<path class="st0" d="M25.3,0.9l2.2,5.3h-0.2l-0.7-1.7h-2.8l-0.7,1.7h-0.2l2.2-5.3C25.1,0.9,25.3,0.9,25.3,0.9z M26.5,4.3l-1.3-3.2
	l0,0l-1.3,3.2H26.5z"/>
<path class="st0" d="M28.3,0.9L31.9,6l0,0V0.9h0.2v5.3h-0.3L28.3,1l0,0v5.1h-0.2V0.9H28.3z"/>
<path class="st0" d="M33.5,0.9v5.3h-0.2V0.9H33.5z"/>
<rect x="9.6" y="0.8" class="st1" width="8.2" height="5.5"/>
<path class="st0" d="M15,2.3c0.3,0.3,0.4,0.8,0.4,1.3S15.3,4.5,15,4.9c-0.3,0.3-0.7,0.5-1.2,0.5s-0.9-0.2-1.2-0.5s-0.4-0.8-0.4-1.3
	s0.1-0.9,0.4-1.3c0.3-0.4,0.7-0.5,1.2-0.5C14.3,1.7,14.7,1.9,15,2.3z M12.7,2.3c-0.3,0.3-0.4,0.7-0.4,1.2s0.1,0.9,0.4,1.2
	C13,5,13.3,5.2,13.8,5.2s0.8-0.2,1.1-0.5s0.4-0.7,0.4-1.2s-0.1-0.9-0.4-1.2c-0.3-0.3-0.6-0.5-1.1-0.5C13.3,1.9,12.9,2,12.7,2.3z"/>
<polygon class="st2" points="12.8,0.6 13.4,0 14.2,0 14.7,0.6 "/>
<polygon class="st2" points="10.1,0.6 10.5,0.1 11.1,0.1 11.5,0.6 "/>
<polygon class="st2" points="15.8,0.6 16.1,0.3 16.5,0.3 16.8,0.6 "/>
<path class="st0" d="M0.6,0.9l1.7,2.4L4,0.9h0.2L2.5,3.4l2,2.8H4.3L2.4,3.5L0.5,6.2H0.2l2-2.8L0.4,0.9H0.6z"/>
<path class="st0" d="M5.3,0.9v2.4H9V0.9h0.2v5.3H9V3.5H5.3v2.7H5.1V0.9H5.3z"/>
<path class="st0" d="M15.8,1.6c0.4,0.5,0.6,1.2,0.6,1.9c0,0.8-0.2,1.4-0.6,1.9C15.4,6,14.7,6.3,14,6.3c-0.8,0-1.4-0.3-1.8-0.8
	c-0.4-0.5-0.6-1.2-0.6-1.9c0-0.8,0.2-1.4,0.6-1.9c0.4-0.7,1-0.9,1.8-0.9S15.4,1,15.8,1.6z M12.3,1.7c-0.4,0.5-0.6,1.1-0.6,1.8
	s0.2,1.3,0.6,1.8C12.7,5.8,13.3,6,14,6s1.3-0.3,1.7-0.7c0.4-0.5,0.6-1.1,0.6-1.8s-0.2-1.4-0.6-1.8C15.3,1.2,14.7,1,14,1
	S12.7,1.2,12.3,1.7z"/>
<path class="st0" d="M18.9,0.9l2,5.1l0,0l2-5.1h0.2L21,6.2h-0.3l-2.1-5.3C18.6,0.9,18.9,0.9,18.9,0.9z"/>
<path class="st0" d="M25.5,0.9l2.2,5.3h-0.2l-0.7-1.7H24l-0.7,1.7h-0.2l2.2-5.3C25.3,0.9,25.5,0.9,25.5,0.9z M26.7,4.3l-1.3-3.2l0,0
	l-1.3,3.2H26.7z"/>
<path class="st0" d="M28.6,0.9L32.2,6l0,0V0.9h0.2v5.3h-0.3L28.5,1l0,0v5.1h-0.2V0.9H28.6z"/>
<path class="st0" d="M33.8,0.9v5.3h-0.2V0.9H33.8z"/>
<rect x="9.9" y="0.8" class="st1" width="8.2" height="5.5"/>
<path class="st0" d="M15.2,2.3c0.3,0.3,0.4,0.8,0.4,1.3s-0.1,0.9-0.4,1.3c-0.3,0.3-0.7,0.5-1.2,0.5s-0.9-0.2-1.2-0.5
	s-0.4-0.8-0.4-1.3s0.1-0.9,0.4-1.3c0.3-0.4,0.7-0.5,1.2-0.5C14.5,1.7,14.9,1.9,15.2,2.3z M12.9,2.3c-0.3,0.3-0.4,0.7-0.4,1.2
	s0.1,0.9,0.4,1.2C13.2,5,13.5,5.2,14,5.2s0.8-0.2,1.1-0.5s0.4-0.7,0.4-1.2s-0.1-0.9-0.4-1.2C14.8,2,14.4,1.9,14,1.9
	C13.5,1.9,13.2,2,12.9,2.3z"/>
<polygon class="st2" points="13,0.6 13.6,0 14.4,0 14.9,0.6 "/>
<polygon class="st2" points="10.3,0.6 10.7,0.1 11.3,0.1 11.7,0.6 "/>
<polygon class="st2" points="16,0.6 16.3,0.3 16.7,0.3 17,0.6 "/>
</svg>
