<?xml version="1.0" encoding="utf-8"?>
<!-- Generator: Adobe Illustrator 27.6.1, SVG Export Plug-In . SVG Version: 6.00 Build 0)  -->
<svg version="1.1" id="Layer_1" xmlns="http://www.w3.org/2000/svg" xmlns:xlink="http://www.w3.org/1999/xlink" x="0px" y="0px"
	 viewBox="0 0 166.7 34.8" style="enable-background:new 0 0 166.7 34.8;" xml:space="preserve">
<style type="text/css">
	.st0{fill:#680325;}
	.st1{fill:#FFFFFF;stroke:#680325;stroke-miterlimit:10;}
	.st2{fill:none;stroke:#FFFFFF;stroke-miterlimit:10;}
</style>
<rect x="44.5" y="6.9" class="st0" width="4.7" height="26.5"/>
<rect x="48.7" y="2.9" class="st0" width="6.4" height="2.3"/>
<rect x="65" y="2.9" class="st0" width="6.4" height="0.5"/>
<path class="st0" d="M81.4,19.7c0,7.9-5.6,13.7-13.6,13.7s-13.6-5.8-13.6-13.7C54.3,11.9,59.9,6,67.8,6C75.8,6,81.4,11.8,81.4,19.7z
	"/>
<polygon class="st0" points="91.1,19.5 91.1,32 81,6.6 86.3,6.6 "/>
<path class="st1" d="M67.8,6c-7.9,0-13.5,5.9-13.6,13.7c0,7.9,5.6,13.7,13.6,13.7s13.6-5.8,13.6-13.7S75.8,6,67.8,6z M67.8,29.4
	c-3.6,0-6.2-1.8-7.7-4.6c-0.1-0.1-0.1-0.2-0.2-0.4c-0.6-1.4-1-2.9-1-4.7s0.3-3.3,1-4.7c0.1-0.1,0.1-0.2,0.2-0.4
	c1.4-2.8,4.1-4.6,7.7-4.6c5.4,0,8.8,4.1,8.8,9.6S73.1,29.4,67.8,29.4z"/>
<path d="M20.5,33L13,22.7L5.6,33H0l9.9-13.6L0.6,6.6h5.6l6.8,9.7l6.8-9.7h5.6l-9.3,12.9L26,33H20.5z"/>
<polygon points="49.2,6.5 49.2,33 44.5,33 44.5,21.4 30.7,21.4 30.7,33 26,33 26,6.5 30.7,6.5 30.7,17.4 44.5,17.4 44.5,6.5 "/>
<polygon points="107.6,6.6 97.2,33 91.5,33 91.1,32 81,6.6 86.3,6.6 91.1,19.5 94.3,28.1 102.3,6.6 "/>
<path d="M125.4,33l-1.9-5.1h-12.6L109,33h-5.1l10.4-26.5h5.8L130.5,33H125.4z M117.2,10.5l-5,13.4h9.9L117.2,10.5z"/>
<path d="M151.9,33l-13.8-19.3V33h-4.7V6.6h4.8l13.6,18.8V6.6h4.7V33H151.9z"/>
<path d="M162,33V6.6h4.7V33H162z"/>
<path class="st1" d="M67.7,10.5c5.2,0,8.8,3.9,8.8,9.3c0,5.3-3.7,9.3-8.8,9.3c-5.2,0-8.8-3.9-8.8-9.3S62.5,10.5,67.7,10.5z
	 M67.7,13.3c-3.5,0-5.7,2.8-5.7,6.5s2.2,6.5,5.7,6.5s5.7-2.8,5.7-6.5C73.4,16,71.2,13.3,67.7,13.3z"/>
<path class="st2" d="M63.3,20.1c-0.1-0.2-0.4-1.7,0.5-3.2c1.1-1.6,2.9-1.7,3.1-1.7"/>
<path class="st0" d="M91.1,19.5V2.9H71.4V0H65v2.9h-9.9V1.8h-6.4v1.1h-4.2v4h4.7v26.5h-4.7v1.4h46.6V32L81,6.6h5.3L91.1,19.5z
	 M81.4,19.7c0,7.9-5.6,13.7-13.6,13.7s-13.6-5.8-13.6-13.7C54.3,11.9,59.9,6,67.8,6C75.8,6,81.4,11.8,81.4,19.7z"/>
</svg>
