<?xml version="1.0" encoding="UTF-8"?><svg id="a" xmlns="http://www.w3.org/2000/svg" viewBox="0 0 199 48"><defs><style>.b{fill:#f9c0ce;}.c{fill:#c15373;}.d{fill:#b20f39;}.e{fill:#a8302c;}</style></defs><circle class="d" cx="24.5" cy="25.5" r="22.5"/><path class="e" d="m66.44,38.28l-5.32-9.75-9.4,9.75h-3.7l11.62-11.99-6.01-11.06h3.28l4.91,9.16,8.71-9.16h3.73l-10.96,11.41,6.4,11.65h-3.25Z"/><path class="e" d="m88.49,38.28l2.32-10.58h-13.48l-2.32,10.58h-2.87l5.08-23.06h2.87l-2.18,9.92h13.48l2.18-9.92h2.87l-5.08,23.06h-2.87Z"/><path class="e" d="m110.26,14.84c5.91,0,10.65,3.7,10.65,10.06,0,7.74-5.77,13.79-12.96,13.79-5.91,0-10.65-3.7-10.65-10.09,0-7.71,5.77-13.76,12.96-13.76Zm-.17,2.56c-5.29,0-9.75,4.67-9.75,11.06,0,4.94,3.46,7.67,7.78,7.67,5.22,0,9.75-4.67,9.75-11.06,0-4.91-3.49-7.67-7.78-7.67Z"/><path class="e" d="m127.85,38.28l-4.18-23.06h3.11l3.39,19.91,12.2-19.91h3.42l-14.38,23.06h-3.56Z"/><path class="e" d="m157.99,38.28l-.9-5.12h-11.72l-3.15,5.12h-3.32l14.35-23.06h3.56l4.22,23.06h-3.04Zm-3.39-20.4l-7.78,12.72h9.99l-2.21-12.72Z"/><path class="e" d="m179.66,38.28l-9.23-19.22-4.22,19.22h-2.87l5.08-23.06h2.94l9.09,18.87,4.18-18.87h2.87l-5.08,23.06h-2.76Z"/><path class="e" d="m187.12,38.28l5.08-23.06h2.87l-5.08,23.06h-2.87Z"/><circle class="c" cx="24.5" cy="25.5" r="15.97"/><circle class="b" cx="24.5" cy="25.5" r="11.47"/></svg>