<?xml version="1.0" encoding="UTF-8"?>
<svg id="Layer_1" data-name="Layer 1" xmlns="http://www.w3.org/2000/svg" xmlns:xlink="http://www.w3.org/1999/xlink" viewBox="0 0 943.18 340.92">
  <defs>
    <style>
      .cls-1, .cls-2 {
        fill: none;
      }

      .cls-3 {
        clip-path: url(#clippath);
      }

      .cls-4 {
        fill: #7c1219;
      }

      .cls-5 {
        clip-path: url(#clippath-1);
      }

      .cls-2 {
        stroke: #7c1219;
        stroke-miterlimit: 10;
        stroke-width: 4.95px;
      }
    </style>
    <clipPath id="clippath">
      <rect class="cls-1" width="943.18" height="340.92"/>
    </clipPath>
    <clipPath id="clippath-1">
      <rect class="cls-1" width="943.18" height="340.92"/>
    </clipPath>
  </defs>
  <g id="Artwork_11" data-name="Artwork 11">
    <g class="cls-3">
      <g class="cls-5">
        <path class="cls-4" d="m166.64,251.28c-1.26,1.05-1.68,2.31-2.31,3.79-.21.42-.21.63-.63,1.26-.84,1.68-2.1,3.37-3.15,4.84-1.47,1.89-2.94,3.37-3.79,5.68-3.58,3.15-7.36,6.52-10.1,10.52-1.68.63-2.73,1.68-3.79,2.73-.84.84-1.26,1.26-2.1,1.89l-5.68,3.37c-.84.42-1.47,1.05-2.31,1.47-1.68,1.05-3.15,2.1-5.05,2.94-5.68,2.31-12.62,3.37-18.51,2.52-7.57-1.05-13.46-5.05-17.88-11.99-.63-.63-.84-1.05-.84-1.68,0-1.89-.63-3.37-1.47-5.05-.63-1.68-1.26-3.37-1.47-5.47,0-.63,0-1.05-.21-1.89-.42-2.1-.84-5.26-.63-12.2.42-2.1.21-4.63.21-7.15v-2.31c-.42-5.89-2.1-10.52-4.63-13.88-.84-.63-1.47-1.26-2.31-1.47-5.47-.84-10.31-1.05-14.51,3.15-1.05,1.05-2.73,1.68-4,2.1l-2.1,1.05c-1.05.42-1.68,1.26-2.31,2.94-1.26,4.21-2.73,8.2-4.42,12.41l-4,13.25c-.63,1.26-1.26,2.1-1.47,2.94-.21,2.1-1.89,6.52-3.58,11.15-1.47,4-2.94,8.41-3.79,11.57-.42,1.26-1.26,2.73-1.68,4-1.26,2.94-4.42,4-7.36,2.31l-1.89-1.26h-.21c-1.05-1.05,0-5.89,1.05-7.36,1.89-2.1,3.58-8.2,5.26-13.88,1.05-3.37,1.89-6.73,2.94-8.83,0,0,.63-1.26,2.31-7.36,1.26-4,2.73-8.62,4-11.36.63-1.26,1.05-2.31,1.47-3.58.42-1.26,1.05-2.52.21-3.15-.21-.21,0-.21-.84.21-.63.21-1.05.42-1.68.42-2.31.21-4.21.84-5.89,2.1-3.36,2.31-6.1,1.68-8.83-2.52-.42-.42-.42-1.05-.21-1.89v-.42c0-.21,0-.42.21-.63l5.68-4.21,1.89-1.26,2.73-1.89c1.47-1.05,3.16-2.1,5.68-2.1.63,0,1.47-.21,2.1-.42l2.52-.63c2.94-.42,3.36-2.73,3.58-5.47v-1.05c.21-1.68.42-2.31,1.47-3.16.84-.63,1.26-1.68,1.47-3.79.21-2.73.42-5.68,2.52-8.41,1.05-.84,1.47-2.1,1.47-3.79,0-2.73.63-5.26,2.31-8.41.63-1.47,1.47-3.37,1.68-5.05,0-.42.21-.84.63-1.68.63-1.47.63-1.89,0-2.52v-.84c.21-.84.63-1.47,1.47-2.52,1.05-1.68,1.26-2.31.63-3.58l.42-1.68c.84-2.31,1.26-3.36,2.1-4.42,1.47-2.1,1.89-4.63,2.52-7.15.21-1.68.63-3.15,1.26-4.84-.63-1.89,0-3.37,1.89-5.68.42-.42.63-.84,1.05-1.47.42-.63,1.47-1.26,2.31-1.68q.21,0,.42-.21c2.31-.84,6.1,1.68,5.89,4.21,0,1.05-.21,2.1-.42,3.58,0,.21-.42.84-.63,1.05,0,.42-.21.63-.21,1.05l-3.15,7.78c-.63.84-.63,2.1-.84,3.37,0,1.89-.21,2.73-.63,4l-.63,1.68c-.63,2.1-1.05,2.94-2.1,4-.42.21-.42,1.05-.63.84,1.05,2.1,0,3.79-.84,5.26-1.26,2.1-1.89,4.84-2.1,7.57,0,2.1-.42,4-1.47,5.89-1.47,3.15-2.94,6.52-2.73,10.1,0,.84,0,1.26-.42,1.89-1.89,2.1-2.52,4.84-3.36,7.57l-.84,2.94c0,.21-.21.21-.21.42l5.89-1.26c4.21-.84,8.2-1.68,11.99-3.58,1.26-.84,2.73-1.26,3.79-1.68,1.26-.42,1.89-.63,2.73-1.05,1.26-.84,2.73-1.26,4-1.68,1.68-.63,2.52-1.05,3.37-1.47,6.1-2.31,11.15-4.84,15.56-7.99l2.52-1.89c4.84-3.16,9.47-6.31,13.04-10.73,1.05-.84,1.89-2.1,2.94-3.16,1.05-1.47,2.1-2.73,3.79-4.21,2.94-2.31,10.31-17.88,7.57-21.66,0-.42-.21-.63-.21-1.05-.42-1.05-.63-1.68-.42-2.52.21-4-1.47-7.36-5.47-11.78l-3.16-3.79c-3.15-4-6.73-6.73-10.52-8.2-.42-.42-.84-.42-1.26-.63-.84-.42-1.89-.84-2.73-1.47-1.47-.84-2.94-1.47-4.42-1.47-1.68-.21-3.79-.42-5.47-1.47-.63-.42-1.47-.63-2.73-.63-.63,0-1.26,0-1.89.21-1.05,0-2.52.21-3.79,0l-4.63-1.26c-4-.84-7.99-.21-12.2.21-.84.21-1.68.21-2.52.42-1.47.21-2.94.21-4.21,0-1.68,0-3.16,0-4.84.42-1.26.21-2.73.84-4.21,1.47-1.26.42-2.73,1.05-4.42,1.47-5.47,1.05-10.73,3.36-16.83,6.94l-14.3,8.62c-2.52,1.47-4.42,3.79-6.31,5.89-1.05,1.26-1.68,2.1-2.52,2.94-.21.21-.63.63-1.05,1.26-.21.42-.21.63-.42.84-.42.63-1.05,1.47-1.68,1.89-1.26,1.47-2.31,2.52-2.73,4-.63,1.68-1.47,3.37-2.1,4.84l-1.26,2.31v.42c0,.21-.21.42-.21.63-.42,2.1-.63,4.42-1.05,6.1-.63,3.36-1.05,5.68-.84,7.15.42,2.73,1.05,6.52,2.1,8.62l1.68,2.73c1.68,3.36,3.37,4.42,7.15,7.15l2.94,2.31c1.05.63,2.1,1.47,4,2.94,1.47,1.47.42,6.1-1.89,6.94-1.26.42-2.94.42-4.21,0-3.15-1.68-6.1-3.37-8.62-5.89-3.16-4.21-6.52-8.41-10.94-14.3-.42-.63-.63-1.47-.42-2.1-.84-1.26-1.05-2.73-.84-5.89,0-2.52,0-3.58-.21-4.21-1.05-1.89-.84-4,.21-8.41.42-.84.63-1.68.63-2.31,0-.42.21-.84.21-1.47.21-2.52.63-5.47,3.37-8.41l.84-.63c.84-1.05,1.47-2.73,2.1-4.21,1.05-2.52,2.1-5.05,5.05-6.73,1.68-.84,3.15-2.52,4.84-4.42,1.26-1.47,2.1-2.31,3.16-3.15,3.36-3.37,6.31-5.47,9.25-7.57,1.68-1.47,3.79-2.31,5.89-3.37l1.47-.84c5.05-2.31,10.1-4.63,15.35-6.73.84-.21,1.89-.84,2.73-1.26,1.47-.84,3.16-1.68,5.05-1.89l7.78-1.47c2.73-.63,5.26-1.26,7.99-1.68,1.47-.21,3.37-.21,4.84,0h2.52l4,.63c1.47,0,2.94,0,4.42.21,2.31.21,4.63.42,6.94-.42.84-.21,2.73.21,3.58.84,1.26.63,1.89.84,2.73.84,5.47,0,10.1,2.1,14.72,4,1.89.84,3.58,1.47,5.26,2.1,1.26.21,2.1.84,2.94,1.47,1.05.42,1.68,1.05,2.73,1.89,1.47,1.26,2.52,2.1,4.21,2.31.63.84,1.26,1.47,2.31,2.52,1.89,1.89,4,4,5.26,6.31,2.94,5.47,5.26,10.94,6.52,17.04.42,1.47.84,3.16.63,4.84,0,4.84-1.05,7.99-2.1,11.15-.21,1.05-.63,2.1-.84,3.37-1.68,1.47-2.94,4-4.21,6.31-2.31,4-4.63,8.41-9.04,10.52-.63.21-1.26,1.05-2.1,1.89-.84.84-1.68,1.89-3.16,2.52-1.26.42-1.89,1.68-2.94,2.94-.42.84-.63.84-.84,1.26-.63.84-1.89,1.47-2.73,1.68q-.42.21-.63.21c-3.15,1.89-6.31,4.21-9.25,6.52-1.26,1.05-3.16,1.68-4.84,2.1-.84.21-1.68,1.26-2.73,2.1-1.26,1.26-1.68,1.68-2.31,2.1-1.68,1.05-3.15,1.05-4.42,1.05-1.47.21-2.1.21-3.15.84-1.89.84-3.79,1.26-5.68,1.68-1.05.42-2.52.63-3.79,1.05,0,.21,0,.42.21.63.21.21.42.42,1.05.42.42.21,1.26.21,2.1.84,4.84,3.15,7.15,7.78,7.36,15.77.21,1.05,0,2.1-.21,4.21v.84c-.21.84-.21,1.26,0,1.68.84,2.94.84,8.2.84,12.62,0,3.36,0,6.31.42,7.57.21.84.42,1.68.63,3.16.42,1.68.63,3.16,1.26,4.42.63.84,1.05,1.47,2.1,2.73,1.05,1.26,2.31,2.52,2.94,4,.63.84,1.05,1.47,2.1,1.68,3.58,1.26,7.99,2.1,11.78.63l4-1.26c4.84-1.47,9.04-2.94,13.25-7.15.42-.21,1.05-.63,1.26-1.05.84-.42,1.26-.84,1.68-1.68.42-1.05,1.68-2.1,2.52-2.31,2.73-.84,4.63-3.36,6.73-6.52l1.68-1.68c1.68-1.68,3.15-2.94,4.21-5.26.84-2.31,1.89-3.79,3.79-4.84.42-.42,1.05-1.26,1.89-3.16l.84-1.47c1.89-3.58,3.37-5.05,5.68-4l.21.21,1.89,1.05c.84,1.26.42,2.52-1.05,6.31"/>
        <path class="cls-4" d="m167.28,272.94c-1.05-.84-2.1-1.68-3.37-2.52l-.42-.21c-.63-.42-1.26-.84-1.47-1.47-1.47-2.94-2.94-6.1-3.15-9.67l.63-3.37.21-.84c.21-.63.42-1.05.42-1.68,0-.21-.21-.63-.42-1.05-.42-1.47-.63-2.31,0-3.36.63-.84,1.05-2.31,1.47-3.58.63-2.31,1.26-3.58,2.31-4.63.84-.63,1.05-1.68,1.47-2.73.21-1.26.42-1.68.84-2.1,1.68-1.47,4.63-4,7.36-7.57,2.94-3.58,10.94-3.79,14.3-.21,2.31,2.94,2.73,4,2.31,5.89-.84,2.31-.42,3.58,1.68,5.05l1.05.63c1.26.63,2.73,1.47,3.37,3.58,0,.63.21,1.05.42,1.47.42,2.1,1.05,4.42.21,6.94-.21.42-.63,1.47-.63,1.68-.21,1.68,0,2.52.63,2.73,5.05,1.89,9.68,1.05,14.09-2.31.42-.63.84-.84,1.47-1.26.21-.21.42-.21.42-.21,1.47-.84,3.79-2.31,4.84-3.79,1.47-2.1,2.31-2.94,4-4.21,1.26-1.05,3.58-.84,4.63.42.42.42.84,1.05,1.05,1.47.42,1.47-2.1,5.47-3.15,6.31l-5.05,5.05-1.68.84c-.21.21-.42.21-.42.21l-3.16,1.68c-3.79,2.1-8.2,4.63-16.62,3.15-1.68,0-3.79-.42-4.84-.84-.84-.42-1.05-.42-2.94,3.16-1.89,3.58-5.47,5.05-8.83,6.31l-2.52.63c-1.89.42-2.52.63-3.36,1.05-2.31,1.05-4.63.84-7.15-.63m10.31-7.15l2.73-2.31c3.79-2.73,3.58-3.15-.63-5.68-5.89-3.16-7.15-10.31-2.73-15.35.42-.63,1.05-1.26,1.68-1.68.42-.42.84-.84,1.26-1.47.84-.63,1.26-1.47,1.26-1.89.63-2.1.42-2.1-1.05-4.42-.21,0,0-.21-.63,0-.84.21-1.47,1.05-2.1,1.89-4.21,5.68-6.31,9.25-7.99,14.93l-.63,2.1c-.84,2.52-1.68,4.63-.63,6.94v1.89c0,1.05-.21,2.31,0,3.16.21.84.84,1.68,1.47,1.89.42.21.84.21,1.26.42.63,0,1.47,0,2.1.21,1.47.63,3.16.42,4.63-.63m9.47-13.25c.21-.42.63-1.05.63-1.89v-1.47c-.21-.84-.21-1.47-.21-2.31s-.63-1.68-.63-2.52c-.42-.21-.84,0-1.05.21-.84.84-1.68,2.1-2.1,3.58l-.42,1.68c-.84,1.47.42,3.16,2.52,3.58.63.21,1.26,0,1.26-.84"/>
        <path class="cls-4" d="m292,248.55c-1.05,2.1-2.73,4.63-4.21,6.73-5.05,6.73-9.47,10.31-16.2,13.04-2.73,1.05-4,1.05-5.47,1.05-.84,0-1.47,0-2.73.21-4.21.42-7.36-1.89-10.31-3.79-1.05-.42-1.68-1.26-2.1-2.31-1.89-2.73-3.37-5.89-3.37-9.68-.84.63-1.26,1.05-1.68,1.47-1.26,2.31-3.36,4.42-5.26,6.31-1.05,1.05-1.47,1.47-2.1,2.31-3.37,3.58-9.04,5.05-14.93,4-1.47-.42-2.52-1.05-2.94-1.47l-2.73-4.42c-.42-.84-.63-1.68-.42-2.31-.63-6.73,1.05-10.94,2.94-15.99,2.1-5.68,3.79-10.52,4.84-15.35.63-3.15,4.63-4.63,7.15-2.73.63.21,1.05.63,1.68,1.47l.63.42c.63,1.05.42,1.89-.42,2.94q-.21.42-.21.63c-1.26,1.68-2.1,4-2.31,6.73-.21,1.47-1.05,3.16-1.68,4.42-.63,1.05-1.05,1.89-1.26,2.94-.21.84-.63,1.89-.84,2.94-.63,2.1-1.26,4.42-1.68,6.73-.21,1.47.21,3.15,1.89,5.47h.42c3.15-1.68,5.47-2.73,7.15-4.84,1.47-2.1,2.94-4.63,4.21-7.15,1.68-2.94,3.36-5.68,5.26-8.2.84-1.05,1.47-1.89,1.68-3.16.21-2.31,2.31-2.94,3.58-3.58,2.94-1.26,6.52.63,6.52,3.79,0,2.31-.21,4.42-.63,6.52-.63,1.89-.84,4.63-1.05,6.73v1.26c-.21,2.31.63,4.63,2.52,7.36,2.73,3.58,5.05,4.42,9.68,2.73,2.1-.63,2.94-.84,4.42-1.89.42-.42,1.05-.63,1.47-.84.63-.21,1.05-.42,1.68-1.47,3.37-1.68,5.26-4.84,7.78-8.62.84-1.47,1.68-2.94,2.73-4.42,1.26-1.47,3.79-1.68,5.26-.42,1.47,1.47,1.89,2.94,1.05,4.42m-43.54,4.63h-.21.21Z"/>
        <path class="cls-4" d="m349,247.91c-.84.84-1.47,1.89-2.1,2.94-.84,1.89-1.47,2.73-2.94,3.58-1.05.42-1.68,1.05-2.52,1.89-.84,1.05-2.1,2.31-4.84,4.21-.84.63-1.89,1.05-2.73,1.47-1.05.42-1.68.63-2.52,1.05-.42.42-1.05,1.05-1.89,1.47-1.05,1.05-2.52,2.31-4,2.31-1.68.42-3.16,1.05-4.63,1.68-1.05.42-2.31,1.05-3.79,1.47-3.36.42-4.21,1.26-4.42,4.84v1.26c-.84,4.63-1.89,7.99-3.15,11.99-.84,2.73-1.68,5.68-1.89,8.62-.21,2.1-1.05,4.21-1.68,6.1l-.63,1.89c-2.31,6.52-4.84,11.57-8.41,15.77-2.52,3.58-5.68,6.31-9.25,8.2-.84.21-1.89.84-3.36,1.89-1.68,1.26-3.58,1.68-5.47,2.31l-2.1.63c-4.42,1.26-8.62.21-12.62-.84-1.47-.42-2.73-.84-4-1.05-1.47-.42-2.31-1.47-3.16-2.31l-1.05-1.05c-3.15-2.52-5.05-5.89-6.31-11.15-.42-3.15-.21-5.89.21-8.62.21-1.89.42-3.58.42-5.26,0-.63.21-1.26.84-2.1.42-.42.42-.63.63-.84,3.16-4.84,6.94-9.25,10.94-13.67,1.05-.84,2.31-1.68,3.58-2.31,1.47-1.26,3.15-2.31,4.84-3.15.63-.42.84-.42,1.05-.63,5.89-4.42,12.83-6.31,19.77-8.62l12.2-4.84c.42-.21.84-.63,1.05-3.37.21-.84.21-1.47.42-2.1v-.63l-.21-.21v.21c-2.31,2.94-5.89,3.58-9.25,4.42-5.47,1.05-11.36-1.47-13.25-6.1-.42-1.26-.63-2.52-.63-3.58l1.89-8.41.21-.21c.21-.42.63-1.05.84-1.68.84-1.05,1.26-2.1,1.47-3.16,0-1.68.63-2.73,1.68-3.79,2.1-2.1,4.21-4,6.31-6.31,5.05-6.52,13.88-7.57,20.82-2.94,4.42,2.94,5.89,6.1,5.05,10.73,0,1.26-1.47,2.73-2.94,3.15-1.05.21-2.52-.42-3.37-1.26-2.1-1.89-3.16-4.21-4.21-6.1-.84-2.1-1.89-2.52-3.79-2.1-3.79.63-6.52,2.52-8.41,5.68-.21.42-.63,1.05-.84,1.68-.63,1.47-1.05,1.89-1.47,2.52-2.1,2.73-3.16,5.89-3.16,9.25v2.73c.21,2.52,1.68,3.79,3.79,2.52,1.26-.84,2.31-1.68,3.15-3.15l1.68-2.31c1.26-1.89,2.73-3.79,4.21-5.47.84-1.47,2.73-2.31,4.63-2.1,3.36.63,5.26,3.37,4.63,6.52,0,.21-.21.63-.42.84l-.21,1.47c.42,2.52,0,5.68-.21,8.2-.21.84,0,1.05.21,1.26-.21,0-.42,0-.63.21.63-.21,1.68-.42,2.52-.42,2.94-.63,4.21-1.05,5.26-1.68,1.26-1.05,2.52-1.47,3.58-2.1,1.68-.63,3.16-1.26,4.63-3.36l1.26-.84c.42-.21.63-.21.63-.21,2.73-1.05,5.47-3.79,7.57-6.1.63-.42,1.26-1.26,1.89-2.1,1.05-1.89,1.89-2.52,2.94-3.16,1.26-.63,2.94-.63,4.21.21,1.26.84,1.89,2.73,1.47,4.21m-45.01,26.29c-.42.21-1.47.42-2.31.84-3.16,1.05-4.63,1.47-5.68,2.1-4.63,2.52-9.47,4.21-14.51,6.1-1.05.21-1.89.84-2.94,1.47-.21.21-.42.21-.42.21-.84.63-1.89,1.47-2.94,2.1-4.21,2.73-7.99,5.26-10.73,9.47-2.1,1.05-3.37,2.94-4.21,6.52-.21.42-.21.84-.42,1.26-.42,1.47-1.05,3.16-1.89,4.84-.21.42-.21,1.26,0,2.31v1.26c-.21,3.15,1.26,5.68,2.73,8.41.63.63,1.05,1.47,1.47,2.31,0,.42.42.63,1.05,1.05,4.84,3.16,8.2,3.79,11.99,1.89,1.26-.63,2.52-1.05,4.21-1.47.63,0,1.47-.42,2.94-1.68l4.21-4.21c1.47-1.47,2.94-2.73,4.21-4.42,2.1-2.1,3.37-4.84,4.21-7.99.42-1.05.63-2.1.84-3.16.84-3.37,1.68-6.73,4-9.68.21,0,.42-.84.42-1.26.42-2.73,1.05-5.26,1.47-7.78.63-2.52,1.05-4.84,1.47-7.57.42-2.1.84-2.94.84-2.94"/>
        <path class="cls-4" d="m399.06,247.49c-.21.21-.42.63-.63,1.26-.42,1.05-.63,1.68-1.26,2.1-1.47,2.1-2.73,3.36-4,4.63-1.05,1.05-1.68,1.68-2.52,2.94-2.94,3.16-5.47,5.05-8.62,6.52-1.47.63-2.94,1.05-3.79,2.31-6.52,4-10.52,4.21-16.41,4.84h-1.47c-7.36.42-15.56-3.58-18.51-9.47-2.1-4-2.73-6.52-2.1-9.46l.63-4.21c.21-2.73.42-5.68,1.68-8.41.42-.84.84-1.68,1.05-2.52l1.05-2.94c1.47-3.15,3.37-5.47,5.68-7.57,3.16-2.94,6.52-4.21,10.1-4,1.89,0,3.37.63,4.84,2.1,3.15,2.94,3.79,5.05,2.1,7.99-.63,1.47-1.26,3.16-1.26,4.42-.63,5.68-4.21,8.83-8.2,11.78-1.05.84-2.31,1.26-3.58,1.89-.63.21-1.05.42-1.68.84l-.84.21c-3.16,1.26-1.47,1.47-1.47,5.05l.21,1.26c.63,1.89,1.89,3.37,4.42,4.42,5.89,2.73,7.99,2.1,12.41,0,.63-.21,1.68-.42,2.52-.84,1.47-.63,2.31-.84,3.37-1.26.63-.21,1.05-.21,1.68-.63,1.89-1.47,3.58-2.73,5.26-3.79,2.73-1.68,5.05-3.16,7.57-6.31l3.15-4c.63-.84,2.1-2.31,3.16-3.16,1.47-1.05,3.37-.84,4.84.42,1.05.84,1.05,2.1.63,3.58m-49.01-2.1v.42c2.31-.63,4.42-2.31,5.05-4.21.42-1.26,1.26-2.31,1.89-3.37,1.05-1.26,1.68-2.31,1.68-3.79v-1.05c0-1.47-.42-2.73-.63-2.52-.42-.21-1.26.42-1.89,1.05-.42.21-.42.42-.84.63-1.05.84-1.47,2.1-2.31,3.58-.21.42-.21.63-.42.84-1.05,1.47-1.47,3.37-1.68,5.26-.42,1.47-.42,2.31-.84,3.16"/>
        <path class="cls-4" d="m587.52,161.68c-1.26,1.26-1.47,2.52-1.68,4.21-.21.84-.21,1.47-.42,2.1-.21.63-1.05,1.05-1.47,1.47-.21.21-.21.42-.42.42-2.31,1.47-4.42,3.16-6.1,5.68-2.31.84-3.79,2.1-5.68,3.36-1.89,1.47-3.79,3.16-6.94,4-1.89.84-4.84,2.1-7.15,2.73-2.1.63-4.21.84-6.31.84-.42.21-.84.21-1.26.21h-.21l.42.21c1.05.21,1.89.63,2.31.84.84.21,1.26.42,1.68.42,1.05-.21,3.36.63,4.84,1.47,5.68,2.94,8.2,5.89,12.2,9.89.63,2.1,1.68,3.58,2.94,5.47,1.47,2.52,3.37,5.26,4,8.41.21,2.31,1.05,4.42,1.68,6.52.21.84.63,1.68.84,2.31.42,1.68.21,3.36.21,5.05-.21,1.26-.21,2.73,0,4,0,1.89-.21,4-.63,5.68,0,.84-.21,1.47-.21,2.31-2.52,9.89-8.2,19.98-12.83,22.93-1.26,2.1-3.58,4.42-6.94,6.73-5.47,5.26-11.15,8.62-17.25,11.15-1.47.42-2.52.84-3.58,1.26-1.68.42-2.94.84-5.26,1.89-2.1,1.05-4.63,1.47-6.73,1.68-2.1.21-3.79.42-5.47,1.26-1.26.21-2.73.63-4.21,1.05-5.05,1.47-10.1,2.94-15.57,2.31l-4.84.84c-1.47.21-2.94,0-4.21,0-.84-.21-1.68-.21-2.52-.21-2.94.42-5.89,0-8.83-.42-1.89-.21-3.58-.42-5.47-.42,0,.42-.21.84-.21,1.26-.21,2.1-1.05,3.79-2.1,5.26-.42,1.05-.84,1.89-1.47,2.94-1.47,3.37-5.89,3.58-7.15.21-.42-.63-.63-1.26-.84-2.73.63-.84.84-2.1,1.05-3.36,0-2.1.63-3.79,1.68-5.47-.42-.21-.84-.63-1.05-.84-.42-.21-1.05-.42-1.26-.42-5.89-.42-10.1-3.58-14.09-6.73-1.26-1.05-2.73-2.1-4.21-3.15-1.05-.63-1.89-1.47-2.94-3.16-.42-.84-1.05-1.68-1.47-2.1-3.37-2.73-4.21-5.68-5.05-8.83l-.63-1.89c-.42-1.26-.42-2.31-.42-4.63v-1.26c-.63-2.1,0-4.42,1.89-6.52.21-.84.84-1.68,1.26-2.52.84-1.26,1.68-2.52,1.89-4,0-1.05.84-2.1,2.1-2.94.21-.42.84-.63,1.26-1.05,1.05-.63,1.68-1.26,2.1-2.31.21-.63.84-1.68,1.26-1.89,1.26,0,2.31-1.05,3.37-1.89,1.05-.84,1.47-1.26,2.31-1.68,2.94-2.52,6.94-1.68,9.47,1.89.63,1.47,0,3.16-1.26,3.79-2.1,1.47-4.84,3.15-6.94,5.89-1.89,0-2.94,1.47-4.21,3.37-.84,1.05-1.26,1.68-1.68,2.1-.21.84-.42,1.47-1.26,2.52-1.26,2.31-1.05,2.94-.84,3.58-1.68,4.63,0,7.78,1.89,11.57l1.68,3.15c1.47,2.52,4.42,5.26,6.52,6.31,0,0,.21.21.63.21.21.21.42.21.42.21,4.84,2.52,9.04,4.21,13.25,5.68,1.05-2.52,2.1-4.84,2.31-5.68.42-2.94,1.26-5.05,2.52-7.15,1.89-3.36,3.36-7.15,4.63-11.15.42-2.31,2.52-7.57,4.21-11.78,1.05-2.52,1.89-4.63,2.31-5.89.21-.84.84-2.31,1.47-4.21,1.47-4,3.58-9.68,4.84-15.14.63-.84.84-1.68,1.26-2.52.63-1.68,1.05-2.52,1.89-3.15.42-.84,1.26-3.58,3.37-10.31,1.89-5.26,2.52-7.15,2.73-7.99l1.47-2.73.84-1.68c.84-1.26,1.26-2.31,1.47-3.79.21-1.05.84-2.1,1.26-2.94.63-1.05,1.05-1.68,1.05-2.94.21-.42.42-1.05.42-1.47.63-2.1,1.05-3.16,1.68-4.42.63-.84,1.05-2.31,1.47-3.79.42-1.68.63-2.52,1.26-3.58.21-2.1,1.26-4,2.1-5.89.42-1.26,1.05-2.52,1.47-4,.21-.84.42-1.26,1.26-2.52l.84-.84c2.1-2.94,5.89-2.73,7.36.21v.63c.42.63.42,1.26.21,1.68-.42,2.1-.63,4.21-2.31,6.31-.63,1.47-1.26,3.36-1.47,5.05-.21.42-.42.84-.42,1.47-1.26,3.79-1.89,5.05-3.58,7.15-.21.21-.21.63-.42,1.26-.21,1.05-.42,2.1-1.05,2.52-1.05,1.26-1.47,3.16-1.89,4.84-.42,2.31-.63,3.37-1.47,4.42-1.68,1.89-2.31,4.63-2.94,7.78,0,1.26-1.05,4.21-4,10.73-1.47,3.79-2.94,7.15-2.94,8.2-.42,1.68-2.52,6.94-4.42,11.78-1.47,3.79-2.73,7.36-3.15,8.83-.63,3.16-1.89,5.89-3.58,8.2-1.47,3.79-2.31,6.73-2.94,9.04-1.26,4-1.68,5.26-2.73,6.73-1.47,1.47-2.52,4-2.73,7.36-.42,1.68-1.05,3.16-1.89,4.63-.21.21-.21.63-.63,1.05-.63,1.47-2.1,4.63-3.37,7.78.42,0,.63.21,1.05.21,1.26.21,2.73,0,4.21,0,2.1,0,4.42-.21,6.52.42,2.73-.42,5.47-.42,8.2-.42,4,0,7.99,0,12.41-1.05l4.63-1.26c3.58-1.26,7.36-2.31,11.15-3.16,1.05-.84,1.89-1.47,3.16-1.89,3.79-.42,5.89-1.47,8.62-2.73,1.26-.42,2.52-1.05,4.21-1.68,1.47-1.89,3.36-2.73,5.05-3.37.84-.42,1.26-.63,1.89-.84,1.47-1.05,2.94-1.89,3.37-3.16.84-1.05,2.1-2.1,3.16-2.94,1.68-1.26,3.16-2.52,3.79-4.84,5.68-6.52,10.52-16.62,9.89-19.56-.21-1.05,0-1.68.42-2.73l.21-.84c.42-6.73.42-13.04-3.36-19.14-.84-.84-1.26-1.47-1.89-2.95-1.68-5.68-5.05-9.67-10.1-12.62-.63-.42-1.05-.63-1.68-.84-2.52-1.26-4.42-2.31-6.94-1.26-1.26-1.68-1.68-1.68-4.21-1.26-.84.21-2.1.42-3.15.21l-1.47-.63c-1.05-.63-1.26-.63-2.73-.42-1.68.21-3.37-.21-4.84-.63-.84-.21-1.68-.42-2.31-.42s-1.26-.42-1.89-.84c-.42-.42-.21-.42-.42-.42-1.89-1.47-1.68-5.68.63-6.94,3.16-1.47,5.89-2.31,8.41-2.52,1.89,0,3.37-.21,5.05-.63.63,0,1.47-.21,2.52-.42,6.1-.63,10.31-1.68,15.14-3.58,7.15-2.1,9.47-4.84,15.77-9.89h-.21l3.15-3.37.63-.21c1.05-.42,2.73-2.73,2.1-4-.21-.84-.42-1.68,0-2.31,1.26-5.05-.21-7.36-2.31-10.73-2.1-3.15-4.63-5.47-6.31-7.15-2.1-2.52-4.21-3.58-8.83-4.21-1.26.21-2.31-.42-3.15-.84-.63-.42-1.05-.63-1.26-.63-.84-.63-1.47-.84-2.73-1.05-.84-.21-1.89-.42-2.94-.84-.84-.42-1.68-.84-3.58-1.26-.63,0-1.26-.21-1.89-.42-.63-.21-1.26-.21-2.1,0-1.05,0-2.52,0-3.79-.42-.42-.21-1.05,0-1.89.21-1.26.21-3.37.63-4.63-1.05-6.31.63-10.73.84-14.93,1.05l-8.41.63c-1.47.21-3.37.42-5.26.84-.63.21-1.47.21-2.1.42-3.16,1.47-6.31,2.1-9.47,2.73-1.26.42-2.52.63-4,1.05-.84.21-1.89.63-2.73,1.26-1.05.63-2.1,1.26-3.79,1.68-.63.21-1.68.84-2.73,1.47-1.47.84-2.1,1.05-2.52,1.26-1.68.63-2.1,1.26-3.58,3.15-.84,1.26-2.1,1.89-2.94,2.31-.84.21-1.26.63-1.89,1.05-6.73,4.42-10.31,9.46-11.36,15.77-.21,0-.42.63,0,1.47.42,1.05-.21,1.89-1.26,3.16-.42.42-.84.63-.84,1.05-1.26,5.05-.63,8.83,2.1,15.14v.84c1.26,4,2.94,5.05,9.25,5.89,1.05,0,1.89-.63,2.94-1.26,1.05-.63,2.52-1.68,4.63-1.68,3.58-1.68,7.36,2.94,5.68,6.31-.21.42-.63,1.05-1.26,1.47l-.42.42c-.84.42-2.31.84-3.58,1.47-1.26.42-2.52.84-4,1.47-4,1.05-7.78.42-10.94-1.47-6.31-2.31-9.89-5.26-11.36-9.47-1.05-1.47-1.47-2.52-1.26-3.36,0-.84-.21-1.68-1.05-2.94-.63-1.47-1.05-2.1-1.05-2.94.21-.63.21-1.05.21-2.1-.21-1.89,0-2.73.84-4.21,0,0,.21-.63-.42-1.26-1.05-4.42,1.05-7.99,3.37-11.57.63-1.26,1.26-2.94,1.68-4.63.42-3.16,2.1-4.84,4.84-6.94,2.73-1.89,4.21-3.15,5.47-4.84l1.26-2.1c1.05-2.1,2.31-4.42,5.68-4.63.63-.21,1.26-.42,2.1-1.26,2.31-.63,4.63-2.1,6.94-3.36,1.89-1.05,3.79-2.1,5.89-2.94,1.26-.42,2.52-.84,3.79-1.47l5.26-1.89,2.1-.63c2.94-1.05,5.05-1.68,8.62-1.47.63,0,1.47-.21,2.31-.42.42,0,.84-.21,1.26-.21.63-.21,1.47-.21,2.1-.42,4-.63,8.41-1.47,12.83-1.05,4.21-1.05,8.2-.42,12.2.21.63,0,1.26.21,1.89.21,1.68-.21,3.16-.42,4.84,0l4.21.63c2.52.63,4.63,1.05,6.73.84,1.89-.21,3.58.63,4.84,1.47,2.73,1.26,3.58,1.47,5.26.42,3.58,2.52,5.47,3.16,9.04,4.42,2.1.84,2.94,1.89,3.79,2.94.63.63,1.26,1.47,2.1,2.1,1.05.42,1.68.84,2.73,1.89l.63.63c5.89,3.37,8.2,8.62,7.99,16.83-.21.84,0,1.89.21,2.73.42,2.52.21,3.58-.84,4.84"/>
        <path class="cls-4" d="m598.24,272.94c-1.05-.84-2.1-1.68-3.37-2.52l-.42-.21c-.63-.42-1.26-.84-1.47-1.47-1.47-2.94-2.94-6.1-3.16-9.67l.63-3.37.21-.84c.21-.63.42-1.05.42-1.68,0-.21-.21-.63-.42-1.05-.42-1.47-.63-2.31,0-3.36.63-.84,1.05-2.31,1.47-3.58.63-2.31,1.26-3.58,2.31-4.63.84-.63,1.05-1.68,1.47-2.73.21-1.26.42-1.68.84-2.1,1.68-1.47,4.63-4,7.36-7.57,2.94-3.58,10.94-3.79,14.3-.21,2.31,2.94,2.73,4,2.31,5.89-.84,2.31-.42,3.58,1.68,5.05l1.05.63c1.26.63,2.73,1.47,3.36,3.58,0,.63.21,1.05.42,1.47.42,2.1,1.05,4.42.21,6.94-.21.42-.63,1.47-.63,1.68-.21,1.68,0,2.52.63,2.73,5.05,1.89,9.68,1.05,14.09-2.31.42-.63.84-.84,1.47-1.26.21-.21.42-.21.42-.21,1.47-.84,3.79-2.31,4.84-3.79,1.47-2.1,2.31-2.94,4-4.21,1.26-1.05,3.58-.84,4.63.42.42.42.84,1.05,1.05,1.47.42,1.47-2.1,5.47-3.16,6.31l-5.05,5.05-1.68.84c-.21.21-.42.21-.42.21l-3.16,1.68c-3.79,2.1-8.2,4.63-16.62,3.15-1.68,0-3.79-.42-4.84-.84-.84-.42-1.05-.42-2.94,3.16-1.89,3.58-5.47,5.05-8.83,6.31l-2.52.63c-1.89.42-2.52.63-3.37,1.05-2.31,1.05-4.63.84-7.15-.63m10.31-7.15l2.73-2.31c3.79-2.73,3.58-3.15-.63-5.68-5.89-3.16-7.15-10.31-2.73-15.35.42-.63,1.05-1.26,1.68-1.68.42-.42.84-.84,1.26-1.47.84-.63,1.26-1.47,1.26-1.89.63-2.1.42-2.1-1.05-4.42-.21,0,0-.21-.63,0-.84.21-1.47,1.05-2.1,1.89-4.21,5.68-6.31,9.25-7.99,14.93l-.63,2.1c-.84,2.52-1.68,4.63-.63,6.94v1.89c0,1.05-.21,2.31,0,3.16.21.84.84,1.68,1.47,1.89.42.21.84.21,1.26.42.63,0,1.47,0,2.1.21,1.47.63,3.15.42,4.63-.63m9.47-13.25c.21-.42.63-1.05.63-1.89v-1.47c-.21-.84-.21-1.47-.21-2.31s-.63-1.68-.63-2.52c-.42-.21-.84,0-1.05.21-.84.84-1.68,2.1-2.1,3.58l-.42,1.68c-.84,1.47.42,3.16,2.52,3.58.63.21,1.26,0,1.26-.84"/>
        <path class="cls-4" d="m714.77,247.49c-.06.27-.12.54-.18.81.33.23.57.56.52.85-.07.42-.73.84-1.59.63-.02.24-.08.67-.36,1.13-.37.62-.91.9-1.13,1-1.05.84-1.68,1.47-2.31,2.94-.21.42-.84,1.05-1.47,1.47-.21,0-.21.21-.21.21-2.1,2.31-5.26,3.58-7.99,4.63-2.73,1.05-4,1.68-5.26,2.73,0,.21-6.31,2.1-7.57,2.31-1.26.21-2.1.63-3.58,1.26-.84.63-1.89,1.05-2.52,1.26-1.26.42-1.26.63-1.47,2.73,0,.42-.21,1.05-.42,1.68-.21.42-.21.84-.21,1.05.21,3.16-.63,6.1-1.68,9.04-.63,1.68-1.26,3.37-1.26,5.26,0,2.52-.84,4.63-2.73,7.36-.84,1.47-1.47,3.15-1.68,4.84-.21,2.94-1.05,5.89-3.37,9.68-.84,1.47-1.68,3.36-2.52,5.26-.42,1.26-.84,1.89-1.05,2.94-2.94,6.1-6.94,11.36-13.25,16.62-2.94,2.73-6.73,3.58-10.52,4.63-2.31.63-4.63,1.26-7.36,1.05-4.42-.63-7.78-2.1-9.89-4.84-.63-.84-1.05-1.47-1.89-2.94-1.26-1.26-1.89-2.52-3.36-5.26l-.63-1.26c-.84-1.26-.84-2.52-.84-4.63.21-1.47,0-2.1-.21-2.94-.84-2.73-.21-5.26.42-7.57.42-1.89.63-3.37.63-5.05,2.73-9.25,5.68-14.51,9.89-18.93,5.89-5.89,11.57-9.89,17.25-12.62,1.68-.84,2.52-1.26,3.36-1.89,2.1-1.68,4.84-2.74,7.15-3.58.42,0,.84-.21,1.26-.42,1.89-.63,3.37-1.26,5.26-2.31,2.31-1.26,5.26-1.89,7.99-2.52,1.68-.42,2.52-1.26,2.94-3.58.42-3.58.42-5.05.42-5.47-.84.21-1.68,1.05-2.52,1.89-.63.84-.84.84-1.26,1.26-4.21,3.79-11.99,4.42-16.83,1.26-1.05-.63-1.68-1.26-1.89-1.89-.21-.63-.21-1.26-.42-1.89-.63-2.52-1.05-5.26-.63-8.2,0,0,.21-.42.21-.84.42-1.47,1.05-2.94,1.26-3.16,1.05-1.47,1.05-1.89,1.05-3.58v-1.26c0-2.1.63-3.58,1.68-5.05.42-.84.84-2.1,1.05-3.79.42-3.15,3.16-4.42,6.52-3.15,1.68.84,3.15,2.94,2.52,4.21-.63,1.68-1.05,3.37-1.47,5.05-.63,2.31-1.26,4.84-2.73,7.15-.21.21-.21.63-.21,1.05-.21.63-.21.84-.21,1.26-.84,1.89-1.26,4.42-1.26,8.41,0,.21.21.63.42,1.05q.21.21,1.26,0c4.84-2.1,7.78-4.84,9.47-8.83,1.68-3.16,3.15-5.47,5.05-7.78.63-.63,1.05-1.89,1.68-3.37.21-.84.42-1.26.84-2.1,1.26-2.31,5.26-3.36,7.57-1.68.42.21,1.05.84,1.26,1.47.42,2.1.42,3.79-.63,5.47-.84,1.68-.63,3.58-.63,5.68,0,1.89-.42,3.79-.84,5.47-.42,2.1-.84,4.21-.63,6.31l-.21,1.68c-.42,1.89-.42,2.52-.42,2.73v.21q.21-.21.42-.21c1.05-.42,2.73-.84,4.21-1.05,2.52-.84,5.05-1.47,6.31-2.1,1.47-.63,7.57-4.21,8.83-5.47,2.52-1.89,3.16-2.73,4.21-4,2.26-.9,3.38-1.94,3.98-2.75.18-.25.49-.7,1.07-1.02.92-.5,1.96-.38,2.69-.19.29.42.85,1.36.88,2.66.01.62-.1,1.13-.21,1.51m-45.85,24.19l-1.68.63c-3.15,1.05-6.31,2.31-9.25,3.79-.63.21-1.47.84-2.31,1.26-3.36,1.47-6.52,3.15-9.47,5.47-1.68,1.47-3.79,2.94-5.89,4.21l-2.1,1.47c-1.05.84-1.89,1.47-2.52,2.73-.84,1.68-2.31,3.15-3.58,4.63-.42.42-.63.63-.84,1.05-1.68,1.89-3.16,4.21-4.42,8.2l-.63,1.89c-.84,2.73-1.05,4-.42,5.47.42.63.42,1.26.21,1.89-1.47,5.05.42,9.25,2.31,13.88,1.47,3.79,4,5.26,7.78,4.84,1.89.21,3.58-.21,6.1-1.47,3.37-1.26,6.1-3.58,8.41-6.31,2.94-4,5.68-7.78,7.78-12.41,1.05-2.1,1.89-4.63,2.73-6.94,1.26-3.37,2.31-6.52,4.21-9.68v-.42c-.21-2.52.84-4.84,1.89-7.15.42-.84.84-1.89,1.05-2.94l.63-1.47c.84-2.1.84-3.37.21-4.63-.42-.42-.42-1.05-.21-1.89.21-.21.21-.42.21-.42l.63-1.89c.42-.84.63-1.47.63-2.31.21-1.26-.63-1.89-1.47-1.47"/>
        <path class="cls-4" d="m719.81,269.16c-1.05-.63-1.68-1.47-1.68-2.73,0-4.42,3.37-7.99,7.78-7.99,1.68-.42,3.79,1.05,4.21,2.52.42,2.94-.63,5.68-2.73,7.99-1.26,1.05-3.37,1.05-5.26,1.05-.63,0-1.68-.42-2.31-.84"/>
        <path class="cls-2" d="m836.54,173.2c-14.72-8.15-29.43-16.29-44.15-24.44l-17.5-39.26,35.73-64.55,28.72-14.85,18.6,10.3s28.89-16.22,6.8-30.79c0,0,16.24-20.87,25.32,8.75l9.2-11.6c6.84,3.78,13.67,7.57,20.51,11.35"/>
        <path class="cls-2" d="m815.75,161.7c14.72,8.15,29.43,16.29,44.15,24.44l42.56-6.01,35.73-64.55-2.66-32.22-18.6-10.3s-1.59-33.09,22.48-22.1c0,0,9.07-24.85-20.85-16.81l4.94-13.95c-6.84-3.78-13.67-7.57-20.51-11.35"/>
        <path class="cls-2" d="m851.81,73.4c-1.04-.17-2.32-.17-3.58.39-.1.05-.2.09-.3.14l-14.47-8.01-20.62,8.45-23.09,41.71,15.27,27.56c6.06,3.35,12.12,6.71,18.18,10.06,5.39,2.98,10.78,5.97,16.17,8.95"/>
        <path class="cls-2" d="m892.23,97.36c.32.14,1.35.66,1.57,1.65.02.1.04.21.04.33l14.47,8.01,3.79,21.96-23.09,41.71-31.46,1.69c-6.06-3.35-12.12-6.71-18.18-10.06-5.39-2.98-10.78-5.97-16.17-8.95"/>
        <path class="cls-2" d="m884.45,115.79c-15.67,28.31-38.55,45.63-51.1,38.69-12.55-6.95-10.02-35.53,5.66-63.85,15.67-28.31,38.55-45.63,51.1-38.69,12.55,6.95,10.02,35.53-5.66,63.85Z"/>
        <line class="cls-2" x1="864.94" y1="59.61" x2="872.5" y2="126.66"/>
        <line class="cls-2" x1="878.29" y1="51.44" x2="886.55" y2="111.85"/>
        <line class="cls-2" x1="853.47" y1="74.02" x2="860.24" y2="146.35"/>
        <line class="cls-2" x1="843.23" y1="85.16" x2="849.51" y2="152.47"/>
        <line class="cls-2" x1="833.94" y1="99.77" x2="839.22" y2="154.22"/>
        <line class="cls-2" x1="889.53" y1="55.56" x2="893.56" y2="94.03"/>
        <line class="cls-2" x1="892.47" y1="101.29" x2="827.88" y2="138.45"/>
        <line class="cls-2" x1="879.58" y1="122.88" x2="828.55" y2="151.83"/>
        <line class="cls-2" x1="896.54" y1="86.09" x2="826.45" y2="127.65"/>
        <line class="cls-2" x1="898.06" y1="73.19" x2="829.93" y2="114.01"/>
        <line class="cls-2" x1="898.28" y1="63.44" x2="834.7" y2="100.57"/>
        <line class="cls-2" x1="891.29" y1="53.05" x2="853.12" y2="74.67"/>
        <path class="cls-4" d="m825.4,166.92c.13,1.75-.84,2.96-1.5,4.31-.64,1.24-1.5,2.8-2.22,3.95-3,5.17-6.5,10.3-10.12,15.03-20.29,26.27-49.66,44.65-81.12,54.54-5.76,1.8-11.58,3.36-17.54,4.4l-.81-4.88c24.03-5.29,47.07-15.89,66.76-30.61,8.02-6.01,15.66-13.01,22.26-20.57,3.79-4.32,7.36-8.94,10.53-13.73,1.9-2.75,4.01-6.3,5.68-9.21l1.01-1.91c.72-1.26,1.13-2.65,2.65-3.51l4.43,2.21Z"/>
        <path class="cls-4" d="m789.12,205.62c-8.54-25.14-25.83-52-51.2-62.34-1.21-.49-2.7-.99-3.95-1.45-.77-.24-3.2-.92-4.04-1.17l1.71.05c-2.32.4-4.67.69-6.99.95-37.52,3.74-77.78-1.97-109.12-24.12-17.96-12.67-31.63-30.85-39.89-51.13-4.3-10.58-7.38-21.71-9.37-32.92,0,0-.96-4.63-.96-4.63l3.82,2.88c12.83,9.65,27.24,17.24,42.57,22.02,1.54.51,4.17,1.21,5.76,1.66,1.76.39,4.11,1.04,5.84,1.36,3.83.83,7.99,1.48,11.86,2,12.22,1.62,24.82,2.03,36.64,6.09,3.9,1.31,7.99,3.06,11.67,4.9,22.47,11.58,39.31,31.31,52.97,52.1l-6.69,4.24c-13.58-21.64-30.77-42.62-54.48-53.34-5.35-2.43-11.01-4.19-16.79-5.33-7.89-1.55-16.04-2.23-24.06-3.51-5.02-.78-10.28-1.78-15.2-3.08-5.94-1.5-12.02-3.59-17.68-5.91-12.38-5.17-24.07-12.05-34.59-20.36l2.85-1.75c1.75,8.77,4.14,17.4,7.28,25.74,1.9,5.12,4.3,10.34,6.83,15.19,8.77,16.6,21.7,30.99,37.56,41.08,31.48,19.84,70.92,23.79,107.15,18.4.86-.12,1.62-.31,2.43-.46,2.01.58,4.92,1.32,6.88,2.08,1.96.66,4.03,1.53,5.88,2.36,0,0,.73.32.73.32l.7.36,1.41.72c1.89.91,3.73,2.06,5.5,3.09,0,0,2.62,1.74,2.62,1.74,18.83,13.06,31.53,33.03,39.85,54,.75,1.94,1.47,3.91,2.1,5.92l-7.58,2.27Z"/>
        <path class="cls-4" d="m629.73,73.09c1.26,8.43,6.53,15.82,12.69,21.47,10.18,9.19,23.31,14.41,36.48,17.67,10.19,2.52,20.74,3.88,31.21,4.55,1.05.07,2.1.13,3.15.29l-.72,7.88c-4.33-.46-8.63-1.2-12.92-1.99-20.88-4.04-43.56-11.21-58.61-26.97-5.84-6.29-10.64-14.19-11.27-22.9"/>
      </g>
    </g>
  </g>
</svg>